<svg width="18" height="18" viewBox="0 0 18 18" fill="none" xmlns="http://www.w3.org/2000/svg">
<g id="Group 40">
<path id="Vector" d="M13 7.4H14.6C16.2 7.4 17 6.6 17 5V3.4C17 1.8 16.2 1 14.6 1H13C11.4 1 10.6 1.8 10.6 3.4V5C10.6 6.6 11.4 7.4 13 7.4Z" stroke="white" stroke-width="1.5" stroke-miterlimit="10" stroke-linecap="round" stroke-linejoin="round"/>
<path id="Vector_2" d="M3.4 17H5C6.6 17 7.4 16.2 7.4 14.6V13C7.4 11.4 6.6 10.6 5 10.6H3.4C1.8 10.6 1 11.4 1 13V14.6C1 16.2 1.8 17 3.4 17Z" stroke="white" stroke-width="1.5" stroke-miterlimit="10" stroke-linecap="round" stroke-linejoin="round"/>
<path id="Vector_3" d="M4.2 7.4C5.96731 7.4 7.4 5.96731 7.4 4.2C7.4 2.43269 5.96731 1 4.2 1C2.43269 1 1 2.43269 1 4.2C1 5.96731 2.43269 7.4 4.2 7.4Z" stroke="white" stroke-width="1.5" stroke-miterlimit="10" stroke-linecap="round" stroke-linejoin="round"/>
<path id="Vector_4" d="M13.8 17C15.5673 17 17 15.5673 17 13.8C17 12.0327 15.5673 10.6 13.8 10.6C12.0327 10.6 10.6 12.0327 10.6 13.8C10.6 15.5673 12.0327 17 13.8 17Z" stroke="white" stroke-width="1.5" stroke-miterlimit="10" stroke-linecap="round" stroke-linejoin="round"/>
</g>
</svg>
