<svg width="129" height="42" viewBox="0 0 129 42" fill="none" xmlns="http://www.w3.org/2000/svg">
<g id="Group 1">
<path id="Vector" d="M83.2867 36.7899C83.2867 37.1105 83.3531 37.4292 83.4878 37.7441C83.6206 38.059 83.8027 38.3398 84.0303 38.5902C84.2599 38.8406 84.5273 39.0435 84.8346 39.201C85.1419 39.3584 85.4739 39.44 85.8287 39.4476C86.1986 39.4476 86.5248 39.4021 86.8075 39.3091C87.0901 39.2162 87.3766 39.0511 87.663 38.8121C87.7996 38.6964 87.9514 38.5883 88.1202 38.4896C88.2871 38.391 88.4711 38.3417 88.6684 38.3417C88.7841 38.3417 88.9074 38.3682 89.0383 38.4194C89.1673 38.4706 89.302 38.5541 89.4386 38.6698C89.5543 38.7723 89.6416 38.8937 89.7004 39.0341C89.7592 39.1744 89.7857 39.3205 89.7819 39.476C89.7782 39.6297 89.744 39.7815 89.6795 39.9332C89.615 40.085 89.5164 40.2272 89.3874 40.3638C88.9625 40.7944 88.4598 41.1226 87.8755 41.3484C87.2912 41.5741 86.6766 41.686 86.0354 41.686C85.3525 41.686 84.7094 41.5608 84.1081 41.3123C83.5068 41.0619 82.9794 40.7186 82.5279 40.2823C82.0764 39.846 81.7217 39.33 81.4618 38.7381C81.2019 38.1463 81.0729 37.5089 81.0729 36.826C81.0805 36.8184 81.0824 36.8127 81.0824 36.8051H81.0729C81.0729 36.1222 81.2019 35.481 81.4618 34.8835C81.7217 34.2859 82.0764 33.7662 82.5279 33.3242C82.9794 32.8822 83.5049 32.5369 84.1081 32.2827C84.7094 32.0304 85.3525 31.9033 86.0354 31.9033C86.6785 31.9033 87.2912 32.0115 87.8755 32.2258C88.4598 32.4421 88.9644 32.7645 89.3874 33.1952C89.5164 33.3242 89.6169 33.4664 89.6852 33.6201C89.7535 33.7737 89.7895 33.9274 89.7933 34.081C89.7971 34.2347 89.7687 34.3827 89.7061 34.523C89.6454 34.6634 89.5524 34.7886 89.4291 34.8967C89.2925 35.0125 89.1635 35.0959 89.0402 35.1434C88.9169 35.1908 88.7974 35.2154 88.6817 35.2154C88.4825 35.2154 88.3004 35.1661 88.1335 35.0675C87.9665 34.9688 87.811 34.8607 87.6668 34.745C87.3804 34.5268 87.0958 34.3694 86.8151 34.2726C86.5343 34.1759 86.2403 34.1285 85.933 34.1285C85.5839 34.1285 85.2501 34.2006 84.9276 34.3447C84.607 34.4889 84.3262 34.6824 84.0872 34.929C83.8482 35.1756 83.6566 35.4583 83.5124 35.7807C83.3683 36.1013 83.2962 36.4371 83.2962 36.7861L83.2867 36.7956V36.7899Z" fill="#8A68C5"/>
<path id="Vector_2" d="M90.793 36.7899C90.793 36.1127 90.922 35.4791 91.1819 34.8873C91.4418 34.2954 91.7927 33.7775 92.2385 33.3336C92.6843 32.8897 93.2003 32.5388 93.7921 32.2827C94.384 32.0266 95.0138 31.8976 95.6834 31.8976C96.353 31.8976 96.9961 32.0266 97.5899 32.2827C98.1855 32.5388 98.7034 32.8897 99.1435 33.3336C99.5836 33.7775 99.9307 34.2954 100.185 34.8873C100.437 35.4791 100.564 36.1127 100.564 36.7899C100.564 37.4671 100.437 38.0932 100.185 38.6869C99.9326 39.2807 99.5855 39.8023 99.1435 40.2462C98.7015 40.6901 98.1855 41.041 97.5899 41.2971C96.9942 41.5532 96.3587 41.6822 95.6834 41.6822C95.0081 41.6822 94.3821 41.5532 93.7921 41.2971C93.2003 41.041 92.6824 40.6901 92.2385 40.2462C91.7946 39.8023 91.4418 39.2826 91.1819 38.6869C90.922 38.0913 90.793 37.4596 90.793 36.7899ZM93.0182 36.7899C93.0182 37.1523 93.0883 37.4956 93.2287 37.82C93.3691 38.1444 93.5607 38.4289 93.8035 38.6717C94.0463 38.9145 94.3271 39.1061 94.6496 39.2465C94.9701 39.3869 95.3154 39.4571 95.6853 39.4571C96.0552 39.4571 96.4005 39.3869 96.7267 39.2465C97.053 39.1061 97.3338 38.9145 97.5728 38.6717C97.8118 38.4289 97.9996 38.1444 98.1362 37.82C98.2728 37.4956 98.3411 37.1523 98.3411 36.7899C98.3411 36.4276 98.2728 36.0748 98.1362 35.7485C97.9996 35.4241 97.8118 35.1415 97.5728 34.9024C97.3338 34.6634 97.0511 34.4737 96.7267 34.3333C96.4024 34.193 96.0552 34.1228 95.6853 34.1228C95.3154 34.1228 94.9796 34.193 94.6552 34.3333C94.3309 34.4737 94.0463 34.6634 93.8035 34.9024C93.5607 35.1415 93.3691 35.4241 93.2287 35.7485C93.0883 36.0729 93.0182 36.42 93.0182 36.7899Z" fill="#8A68C5"/>
<path id="Vector_3" d="M104.114 40.472C104.114 40.7793 104.009 41.0373 103.801 41.2459C103.592 41.4546 103.334 41.5589 103.027 41.5589C102.877 41.5589 102.733 41.5305 102.596 41.4717C102.459 41.4148 102.338 41.337 102.232 41.2402C102.126 41.1454 102.042 41.0297 101.981 40.8969C101.919 40.7641 101.888 40.6218 101.888 40.472V35.6423C101.888 35.1301 101.989 34.6464 102.19 34.1911C102.391 33.7358 102.666 33.3393 103.015 33.0017C103.364 32.664 103.768 32.3946 104.229 32.1974C104.69 32.0001 105.178 31.8995 105.69 31.8995C106.202 31.8995 106.724 32.002 107.192 32.2068C107.661 32.4117 108.073 32.6925 108.429 33.0472C108.784 32.6925 109.199 32.4117 109.676 32.2068C110.152 32.002 110.654 31.8995 111.187 31.8995C111.72 31.8995 112.193 31.9963 112.644 32.186C113.096 32.3776 113.492 32.6413 113.834 32.9751C114.175 33.3109 114.448 33.6998 114.653 34.1437C114.858 34.5876 114.972 35.0637 114.991 35.5683C114.991 35.5816 114.991 35.5986 114.997 35.6138C115 35.6309 115.002 35.6461 115.002 35.6593V40.4701C115.002 40.6199 114.974 40.7622 114.915 40.895C114.856 41.0278 114.778 41.1435 114.68 41.2383C114.581 41.3351 114.465 41.411 114.336 41.4698C114.207 41.5286 114.067 41.557 113.915 41.557C113.763 41.557 113.619 41.5286 113.479 41.4698C113.339 41.4129 113.217 41.3351 113.115 41.2383C113.012 41.1435 112.931 41.0278 112.868 40.895C112.806 40.7622 112.775 40.6199 112.775 40.4701V35.629C112.768 35.4108 112.72 35.2079 112.631 35.0239C112.542 34.8398 112.424 34.6805 112.278 34.5477C112.13 34.4149 111.963 34.3106 111.775 34.2347C111.588 34.1607 111.383 34.1228 111.165 34.1228C110.946 34.1228 110.738 34.1645 110.539 34.2461C110.339 34.3277 110.169 34.4396 110.021 34.58C109.873 34.7203 109.757 34.8835 109.672 35.0732C109.586 35.2629 109.543 35.464 109.543 35.684V40.4739C109.543 40.7812 109.438 41.0392 109.23 41.2478C109.021 41.4565 108.763 41.5608 108.456 41.5608C108.306 41.5608 108.162 41.5324 108.025 41.4736C107.889 41.4167 107.767 41.3389 107.661 41.2421C107.555 41.1473 107.471 41.0316 107.411 40.8988C107.348 40.766 107.318 40.6237 107.318 40.4739V35.6442C107.31 35.426 107.264 35.2211 107.179 35.0333C107.094 34.8455 106.98 34.6843 106.836 34.5515C106.692 34.4187 106.525 34.3144 106.333 34.2385C106.141 34.1645 105.937 34.1266 105.718 34.1266C105.5 34.1266 105.294 34.1664 105.098 34.2442C104.903 34.322 104.732 34.432 104.586 34.5724C104.438 34.7127 104.322 34.874 104.237 35.0599C104.152 35.2439 104.108 35.4431 104.108 35.6555V40.4758L104.114 40.472Z" fill="#8A68C5"/>
<path id="Vector_4" d="M76.6321 41.6822C77.8694 41.6822 78.8724 40.6792 78.8724 39.4419C78.8724 38.2046 77.8694 37.2016 76.6321 37.2016C75.3948 37.2016 74.3918 38.2046 74.3918 39.4419C74.3918 40.6792 75.3948 41.6822 76.6321 41.6822Z" fill="#8A68C5"/>
<path id="Vector_5" d="M0 4.30804C0 3.97796 0.0588062 3.67065 0.176419 3.388C0.294031 3.10535 0.45148 2.85685 0.652559 2.64439C0.851742 2.43003 1.09076 2.26499 1.36582 2.14738C1.64088 2.02977 1.93681 1.97096 2.2555 1.97096C2.5742 1.97096 2.8853 2.02977 3.15467 2.14738C3.42404 2.26499 3.65737 2.43003 3.85655 2.64439C4.05573 2.85875 4.21128 3.10535 4.32131 3.388C4.43133 3.67065 4.48635 3.97796 4.48635 4.30804V10.7578C5.27169 10.2475 6.11585 9.851 7.01881 9.57024C7.92177 9.2876 8.86836 9.14722 9.86048 9.14722C11.2244 9.14722 12.503 9.40521 13.6943 9.92308C14.8856 10.4391 15.927 11.1428 16.8148 12.0306C17.7026 12.9184 18.4063 13.9636 18.9223 15.1625C19.4383 16.3614 19.6982 17.6438 19.6982 19.0077C19.6982 20.3716 19.4402 21.6331 18.9223 22.832C18.4063 24.0309 17.7026 25.078 16.8148 25.9734C15.9251 26.8688 14.8856 27.5744 13.6943 28.0923C12.503 28.6083 11.2244 28.8682 9.86048 28.8682C8.49655 28.8682 7.23506 28.6102 6.03617 28.0923C4.83729 27.5744 3.79016 26.8688 2.89478 25.9734C1.99941 25.078 1.29374 24.0309 0.775863 22.832C0.259886 21.6331 0 20.3583 0 19.0077L0 4.30804ZM4.48635 19.0039C4.48635 19.7342 4.62672 20.4266 4.90937 21.0811C5.19202 21.7355 5.57711 22.3084 6.06653 22.796C6.55595 23.2854 7.12314 23.6705 7.77191 23.9531C8.41878 24.2358 9.11497 24.3761 9.85858 24.3761C10.6022 24.3761 11.2984 24.2358 11.9453 23.9531C12.5921 23.6705 13.1612 23.2854 13.6506 22.796C14.1401 22.3065 14.5213 21.7355 14.7983 21.0811C15.0734 20.4266 15.2118 19.7342 15.2118 19.0039C15.2118 18.2736 15.0734 17.5603 14.7983 16.9058C14.5232 16.2514 14.1401 15.6823 13.6506 15.2005C13.1612 14.7186 12.5921 14.3354 11.9453 14.0528C11.2984 13.7701 10.6022 13.6298 9.85858 13.6298C9.11497 13.6298 8.41878 13.772 7.77191 14.0528C7.12314 14.3354 6.55595 14.7167 6.06653 15.2005C5.57711 15.6823 5.19202 16.2514 4.90937 16.9058C4.62672 17.5603 4.48635 18.2603 4.48635 19.0039Z" fill="#845DC2"/>
<path id="Vector_6" d="M21.5174 19.0058C21.5174 17.6419 21.7792 16.3633 22.3027 15.172C22.8263 13.9807 23.5358 12.9374 24.4311 12.0401C25.3265 11.1447 26.3699 10.4391 27.5631 9.92119C28.7544 9.40521 30.0253 9.14532 31.376 9.14532C32.7266 9.14532 34.0223 9.40331 35.2211 9.92119C36.42 10.4372 37.4634 11.1447 38.353 12.0401C39.2408 12.9355 39.9408 13.9807 40.4511 15.172C40.9614 16.3633 41.2156 17.6419 41.2156 19.0058V26.3224C41.2156 26.6392 41.1568 26.9352 41.0392 27.2121C40.9216 27.4872 40.7603 27.7281 40.5535 27.9349C40.3468 28.1416 40.1021 28.3067 39.8194 28.4319C39.5368 28.5552 39.237 28.6178 38.9202 28.6178C38.3834 28.6178 37.9281 28.4603 37.5563 28.1416C37.1845 27.8248 36.936 27.4265 36.8127 26.9427C36.0274 27.5346 35.1756 28.0032 34.2594 28.3484C33.3431 28.6918 32.3814 28.8644 31.376 28.8644C30.0253 28.8644 28.7544 28.6064 27.5631 28.0885C26.3718 27.5706 25.3265 26.865 24.4311 25.9696C23.5358 25.0742 22.8263 24.0271 22.3027 22.8282C21.7792 21.6293 21.5174 20.3546 21.5174 19.0039V19.0058ZM26.0018 19.0058C26.0018 19.7361 26.1422 20.4285 26.4249 21.083C26.7075 21.7374 27.0926 22.3103 27.582 22.7979C28.0714 23.2873 28.6386 23.6724 29.2874 23.955C29.9343 24.2377 30.6305 24.378 31.376 24.378C32.1215 24.378 32.8196 24.2377 33.474 23.955C34.1285 23.6724 34.6976 23.2873 35.1794 22.7979C35.6612 22.3084 36.0406 21.7374 36.3157 21.083C36.5908 20.4285 36.7292 19.7361 36.7292 19.0058C36.7292 18.2755 36.5908 17.5622 36.3157 16.9077C36.0406 16.2533 35.6612 15.6842 35.1794 15.2024C34.6976 14.7205 34.1285 14.3373 33.474 14.0547C32.8196 13.772 32.1196 13.6317 31.376 13.6317C30.6324 13.6317 29.9532 13.7739 29.2988 14.0547C28.6443 14.3373 28.0714 14.7186 27.5839 15.2024C27.0945 15.6842 26.7094 16.2533 26.4268 16.9077C26.1441 17.5622 26.0037 18.2622 26.0037 19.0058H26.0018Z" fill="#D55FAD"/>
<path id="Vector_7" d="M48.6328 21.5515C48.9059 22.1396 49.2967 22.6651 49.807 23.126C50.3173 23.5889 50.8883 23.9512 51.518 24.213C52.1478 24.4748 52.8118 24.619 53.508 24.6455C54.2042 24.6721 54.8795 24.5412 55.5358 24.2528C56.2112 23.9398 56.7689 23.5794 57.209 23.1697C57.6491 22.7599 58.0304 22.2155 58.3529 21.5345C58.5046 21.2063 58.6905 20.88 58.9125 20.5575C59.1344 20.235 59.4265 19.9884 59.7889 19.8215C60.0013 19.7229 60.2479 19.6659 60.5287 19.6489C60.8094 19.6318 61.1243 19.6716 61.4734 19.7684C61.7731 19.8575 62.0349 20.0055 62.2606 20.2123C62.4864 20.419 62.6609 20.6657 62.7842 20.9483C62.9075 21.2329 62.9758 21.5402 62.9834 21.8702C62.9929 22.2003 62.9359 22.5456 62.8145 22.906C62.4048 24.0537 61.7617 25.0799 60.8834 25.9886C60.0051 26.8972 58.9789 27.6238 57.8046 28.1682C56.5545 28.7487 55.2741 29.0655 53.9614 29.1186C52.6505 29.1736 51.3966 28.9915 50.1997 28.5741C49.0027 28.1568 47.9176 27.5175 46.9406 26.6563C45.9637 25.7951 45.1859 24.7404 44.6055 23.4903C44.6112 23.4732 44.6131 23.4561 44.6055 23.4447L44.5865 23.4542C44.006 22.2041 43.7006 20.9217 43.6684 19.609C43.6361 18.2944 43.8448 17.0424 44.2963 15.8549C44.7477 14.6655 45.4155 13.5861 46.3014 12.613C47.1873 11.6398 48.2553 10.864 49.5054 10.2835C50.6796 9.73908 51.8937 9.41469 53.1457 9.31226C54.3977 9.20982 55.5928 9.37296 56.7328 9.80168C57.08 9.92877 57.3816 10.1052 57.6377 10.3271C57.8938 10.551 58.0892 10.8014 58.2258 11.0802C58.3623 11.3591 58.4344 11.6531 58.4401 11.9604C58.4458 12.2696 58.3832 12.5751 58.2504 12.8805C58.0987 13.2086 57.9317 13.4685 57.7477 13.6601C57.5637 13.8517 57.3645 13.9978 57.1521 14.0964C56.7897 14.2653 56.4122 14.3298 56.0234 14.2899C55.6326 14.252 55.257 14.1856 54.8966 14.0945C54.1871 13.939 53.5345 13.8916 52.9408 13.9542C52.347 14.0168 51.7685 14.178 51.2069 14.4398C50.5696 14.7357 50.0175 15.1511 49.5528 15.6861C49.0861 16.221 48.739 16.8148 48.5113 17.4674C48.2818 18.1199 48.1737 18.8009 48.1832 19.5104C48.1927 20.2199 48.3463 20.8933 48.6422 21.5307L48.6328 21.5572V21.5515Z" fill="#FF6D91"/>
<path id="Vector_8" d="M83.649 26.4249C83.649 26.7284 83.5902 27.0148 83.4726 27.2823C83.355 27.5498 83.1937 27.785 82.987 27.9842C82.7802 28.1853 82.5431 28.3389 82.2737 28.4489C82.0043 28.559 81.7122 28.614 81.3954 28.614C81.0786 28.614 80.8054 28.559 80.538 28.4489C80.2686 28.3389 80.0315 28.1834 79.8247 27.9842C79.6179 27.785 79.4567 27.5498 79.3391 27.2823C79.2215 27.0148 79.1627 26.7284 79.1627 26.4249V18.6625C79.1627 18.615 79.1702 18.5695 79.1835 18.5278C79.1702 17.8392 79.045 17.198 78.8117 16.6061C78.5765 16.0143 78.2559 15.4964 77.8499 15.0563C77.444 14.6162 76.9584 14.2672 76.3931 14.013C75.8278 13.7588 75.1999 13.6298 74.5113 13.6298C73.8227 13.6298 73.153 13.7512 72.5479 13.9921C71.9409 14.233 71.4173 14.5707 70.9772 15.0051C70.5371 15.4395 70.1881 15.9555 69.9339 16.5549C69.6797 17.1544 69.5507 17.8126 69.5507 18.5278V26.3831C69.5507 26.6867 69.4919 26.975 69.3743 27.252C69.2566 27.5289 69.0992 27.766 68.8981 27.9652C68.6989 28.1663 68.4637 28.3237 68.1962 28.4414C67.9288 28.559 67.6347 28.6178 67.3179 28.6178C67.0011 28.6178 66.7052 28.559 66.4302 28.4414C66.1532 28.3237 65.9161 28.1663 65.7169 27.9652C65.5177 27.766 65.3584 27.5289 65.2408 27.252C65.1231 26.975 65.0643 26.6867 65.0643 26.3831V4.24734C65.0643 3.93054 65.1231 3.63461 65.2408 3.35955C65.3584 3.08449 65.5196 2.84358 65.7264 2.63681C65.9331 2.43004 66.1741 2.26879 66.4491 2.15118C66.7242 2.03357 67.0144 1.97476 67.3179 1.97476C67.6215 1.97476 67.9288 2.03357 68.1962 2.15118C68.4656 2.26879 68.6989 2.43004 68.8981 2.63681C69.0973 2.84358 69.2566 3.08449 69.3743 3.35955C69.4919 3.63461 69.5507 3.93244 69.5507 4.24734V10.9854C70.2677 10.4068 71.0417 9.95534 71.8764 9.63095C72.7091 9.30657 73.5893 9.14533 74.5113 9.14533C75.8202 9.14533 77.0323 9.39762 78.1497 9.90032C79.2651 10.403 80.2306 11.0859 81.0426 11.9472C81.8564 12.8084 82.4918 13.8176 82.9547 14.9747C83.4157 16.1319 83.6471 17.3649 83.6471 18.6738V26.4249H83.649Z" fill="#FC966C"/>
<path id="Vector_9" d="M86.3977 19.0058C86.3977 17.6419 86.6595 16.3633 87.1831 15.172C87.7066 13.9807 88.4161 12.9374 89.3115 12.0401C90.2069 11.1447 91.2502 10.4391 92.4434 9.92119C93.6347 9.40521 94.9057 9.14532 96.2563 9.14532C97.607 9.14532 98.9026 9.40331 100.101 9.92119C101.3 10.4372 102.344 11.1447 103.233 12.0401C104.123 12.9355 104.821 13.9807 105.331 15.172C105.842 16.3633 106.096 17.6419 106.096 19.0058V26.3224C106.096 26.6392 106.037 26.9352 105.92 27.2121C105.802 27.4872 105.641 27.7281 105.434 27.9349C105.227 28.1416 104.982 28.3067 104.7 28.4319C104.417 28.5552 104.117 28.6178 103.801 28.6178C103.264 28.6178 102.808 28.4603 102.437 28.1416C102.065 27.8248 101.816 27.4265 101.693 26.9427C100.908 27.5346 100.056 28.0032 99.1397 28.3484C98.2235 28.6918 97.2617 28.8644 96.2563 28.8644C94.9057 28.8644 93.6347 28.6064 92.4434 28.0885C91.2521 27.5706 90.2069 26.865 89.3115 25.9696C88.4161 25.0742 87.7066 24.0271 87.1831 22.8282C86.6595 21.6293 86.3977 20.3546 86.3977 19.0039V19.0058ZM90.8822 19.0058C90.8822 19.7361 91.0226 20.4285 91.3052 21.083C91.5879 21.7374 91.9729 22.3103 92.4624 22.7979C92.9518 23.2873 93.519 23.6724 94.1677 23.955C94.8146 24.2377 95.5108 24.378 96.2544 24.378C96.998 24.378 97.698 24.2377 98.3525 23.955C99.0069 23.6724 99.576 23.2873 100.058 22.7979C100.54 22.3084 100.919 21.7374 101.194 21.083C101.469 20.4285 101.608 19.7361 101.608 19.0058C101.608 18.2755 101.469 17.5622 101.194 16.9077C100.919 16.2533 100.54 15.6842 100.058 15.2024C99.576 14.7205 99.0069 14.3373 98.3525 14.0547C97.698 13.772 96.998 13.6317 96.2544 13.6317C95.5108 13.6317 94.8317 13.7739 94.1772 14.0547C93.5228 14.3373 92.9499 14.7186 92.4624 15.2024C91.9729 15.6842 91.5879 16.2533 91.3052 16.9077C91.0226 17.5622 90.8822 18.2622 90.8822 19.0058Z" fill="#FFC55D"/>
<path id="Vector_10" d="M114.426 19.3567C114.426 20.0605 114.556 20.7188 114.818 21.3315C115.08 21.9442 115.439 22.4754 115.894 22.923C116.349 23.3707 116.886 23.7217 117.506 23.9778C118.127 24.232 118.789 24.361 119.49 24.361C120.192 24.361 120.851 24.2263 121.465 23.9588C122.08 23.6913 122.609 23.3252 123.057 22.8642C123.504 22.4033 123.859 21.8607 124.121 21.2423C124.383 20.622 124.514 19.9543 124.514 19.2372V11.6304C124.514 11.3268 124.576 11.0404 124.7 10.7729C124.823 10.5036 124.99 10.2664 125.197 10.0597C125.403 9.85289 125.648 9.69164 125.931 9.57403C126.213 9.45642 126.505 9.39761 126.809 9.39761C127.113 9.39761 127.414 9.45642 127.678 9.57403C127.94 9.69164 128.171 9.85289 128.37 10.0597C128.569 10.2664 128.725 10.5036 128.835 10.7729C128.945 11.0423 129 11.3268 129 11.6304V19.3188C129 20.4494 128.814 21.5193 128.442 22.5323C128.07 23.5453 127.56 24.4577 126.913 25.2715C126.265 26.0853 125.494 26.7796 124.599 27.3582C123.704 27.9368 122.732 28.3503 121.685 28.5988V33.3526C121.685 33.6694 121.626 33.9653 121.509 34.2423C121.391 34.5174 121.23 34.7545 121.023 34.9556C120.816 35.1547 120.579 35.3141 120.31 35.4317C120.041 35.5493 119.756 35.6081 119.453 35.6081C118.804 35.6081 118.267 35.3938 117.84 34.9669C117.413 34.5401 117.199 34.0014 117.199 33.3545V28.5798C116.152 28.318 115.186 27.8969 114.306 27.3183C113.424 26.7398 112.659 26.0436 112.011 25.2317C111.362 24.4179 110.855 23.5092 110.491 22.5038C110.125 21.4984 109.943 20.4361 109.943 19.3207V11.6323C109.943 11.3287 110.002 11.0423 110.119 10.7748C110.237 10.5054 110.394 10.2683 110.596 10.0616C110.797 9.85478 111.032 9.69354 111.309 9.57593C111.584 9.45832 111.874 9.39951 112.178 9.39951C112.481 9.39951 112.769 9.45832 113.046 9.57593C113.322 9.69354 113.562 9.85478 113.769 10.0616C113.976 10.2683 114.137 10.5054 114.255 10.7748C114.372 11.0442 114.431 11.3287 114.431 11.6323V19.3624L114.426 19.3567Z" fill="#F8931B"/>
<path id="Vector_11" d="M46.0699 8.83232C48.5089 8.83232 50.4861 6.85514 50.4861 4.41616C50.4861 1.97718 48.5089 0 46.0699 0C43.631 0 41.6538 1.97718 41.6538 4.41616C41.6538 6.85514 43.631 8.83232 46.0699 8.83232Z" fill="#FFC65F"/>
<path id="Vector_12" d="M53.6104 21.8854C55.2007 21.8854 56.49 20.5962 56.49 19.0058C56.49 17.4154 55.2007 16.1262 53.6104 16.1262C52.02 16.1262 50.7308 17.4154 50.7308 19.0058C50.7308 20.5962 52.02 21.8854 53.6104 21.8854Z" fill="#FFC65F"/>
</g>
</svg>
