<svg width="24" height="25" viewBox="0 0 24 25" fill="none" xmlns="http://www.w3.org/2000/svg">
<g id="Group 34">
<path id="Vector" d="M1 1H2.95827C4.17375 1 5.13037 2.04666 5.02908 3.25088L4.09496 14.4603C3.9374 16.2947 5.38921 17.8703 7.23493 17.8703H19.2209C20.8415 17.8703 22.2596 16.5423 22.3834 14.933L22.9911 6.49216C23.1262 4.62392 21.7081 3.10457 19.8286 3.10457H5.29919" stroke="black" stroke-width="2" stroke-miterlimit="10" stroke-linecap="round" stroke-linejoin="round"/>
<path id="Vector_2" d="M17.0375 23.5088C17.8145 23.5088 18.4443 22.879 18.4443 22.102C18.4443 21.3251 17.8145 20.6952 17.0375 20.6952C16.2606 20.6952 15.6307 21.3251 15.6307 22.102C15.6307 22.879 16.2606 23.5088 17.0375 23.5088Z" stroke="black" stroke-width="2" stroke-miterlimit="10" stroke-linecap="round" stroke-linejoin="round"/>
<path id="Vector_3" d="M8.034 23.5088C8.81095 23.5088 9.4408 22.879 9.4408 22.102C9.4408 21.3251 8.81095 20.6952 8.034 20.6952C7.25704 20.6952 6.6272 21.3251 6.6272 22.102C6.6272 22.879 7.25704 23.5088 8.034 23.5088Z" stroke="black" stroke-width="2" stroke-miterlimit="10" stroke-linecap="round" stroke-linejoin="round"/>
<path id="Vector_4" d="M8.87805 7.75264H22.3833" stroke="black" stroke-width="2" stroke-miterlimit="10" stroke-linecap="round" stroke-linejoin="round"/>
</g>
</svg>
