<svg width="24" height="30" viewBox="0 0 24 30" fill="none" xmlns="http://www.w3.org/2000/svg">
<g id="Group 32">
<path id="Vector" d="M12.0339 2.33057C7.49471 2.33057 3.80575 6.01952 3.80575 10.5587V14.5219C3.80575 15.3585 3.4492 16.6338 3.02408 17.3469L1.44702 19.9662C0.473353 21.5844 1.14532 23.3809 2.92808 23.9843C8.83864 25.9591 15.2155 25.9591 21.126 23.9843C22.7854 23.4358 23.5122 21.4747 22.6071 19.9662L21.03 17.3469C20.6186 16.6338 20.2621 15.3585 20.2621 14.5219V10.5587C20.2621 6.03323 16.5594 2.33057 12.0339 2.33057Z" stroke="black" stroke-width="2" stroke-miterlimit="10" stroke-linecap="round"/>
<path id="Vector_2" d="M14.5713 2.72791C14.1462 2.60449 13.7074 2.50849 13.2548 2.45364C11.9383 2.28908 10.6767 2.38507 9.49731 2.72791C9.89501 1.71311 10.8824 1 12.0343 1C13.1863 1 14.1736 1.71311 14.5713 2.72791Z" stroke="black" stroke-width="2" stroke-miterlimit="10" stroke-linecap="round" stroke-linejoin="round"/>
<path id="Vector_3" d="M16.1482 24.4778C16.1482 26.7405 14.2969 28.5919 12.0341 28.5919C10.9096 28.5919 9.86737 28.1256 9.12684 27.3851C8.3863 26.6445 7.92004 25.6023 7.92004 24.4778" stroke="black" stroke-width="2" stroke-miterlimit="10"/>
</g>
</svg>
