<svg width="16" height="19" viewBox="0 0 16 19" fill="none" xmlns="http://www.w3.org/2000/svg">
<path id="Vector" d="M15.0768 5.58591C14.1722 1.73413 10.7002 0 7.65038 0C7.65038 0 7.65038 0 7.64176 0C4.60056 0 1.11997 1.7258 0.215364 5.57757C-0.792627 9.87955 1.92981 13.5229 4.39379 15.8156C5.30701 16.666 6.47439 18.8903 7.64607 18.8903C8.81775 18.8903 9.99374 16.666 10.8983 15.8156C13.3623 13.5229 16.0848 9.88789 15.0768 5.58591ZM7.65038 9.76283C6.15131 9.76283 4.93655 8.58729 4.93655 7.13662C4.93655 5.68595 6.15131 4.51041 7.65038 4.51041C9.14944 4.51041 10.3642 5.68595 10.3642 7.13662C10.3642 8.58729 9.14944 9.76283 7.65038 9.76283Z" fill="white"/>
</svg>
